<?xml version="1.0" standalone="no"?>
<!DOCTYPE svg PUBLIC "-//W3C//DTD SVG 20010904//EN"
 "http://www.w3.org/TR/2001/REC-SVG-20010904/DTD/svg10.dtd">
<svg version="1.0" xmlns="http://www.w3.org/2000/svg"
 width="480.000000pt" height="480.000000pt" viewBox="0 0 480.000000 480.000000"
 preserveAspectRatio="xMidYMid meet">

<g transform="translate(0.000000,480.000000) scale(0.100000,-0.100000)"
fill="#6161F8" stroke="none">
<path d="M2240 4644 c-552 -51 -1021 -262 -1398 -629 -369 -358 -591 -790
-668 -1300 -24 -163 -25 -466 -1 -625 61 -395 196 -723 431 -1040 90 -122 324
-356 446 -447 401 -297 850 -447 1345 -447 204 0 314 11 493 50 759 167 1384
727 1637 1464 87 255 119 452 119 730 0 278 -32 475 -120 731 -114 334 -278
595 -538 855 -317 317 -665 510 -1099 609 -165 38 -495 63 -647 49z m406
-1164 c403 -51 647 -307 730 -765 24 -133 24 -409 0 -550 -70 -416 -286 -714
-586 -809 -130 -41 -204 -46 -736 -46 l-504 0 0 1090 0 1090 508 0 c282 0 543
-4 588 -10z"/>
<path d="M2000 2401 l0 -711 223 0 c122 0 251 5 286 11 192 31 323 172 389
418 23 88 25 114 26 301 1 224 -11 313 -61 436 -49 124 -113 184 -243 226 -58
19 -94 22 -342 26 l-278 4 0 -711z"/>
</g>
</svg>
