<?xml version="1.0" encoding="utf-8"?>
<svg version="1.0" width="100.000000pt" height="100.000000pt" viewBox="2.242 0.112 100 100" preserveAspectRatio="xMidYMid meet" xmlns="http://www.w3.org/2000/svg">
  <g transform="translate(0.000000,100.000000) scale(0.100000,-0.100000)" fill="#6161F8" stroke="none">
    <path d="M 405 896 C 200 846 69.628 638.427 99 434 C 120.295 285.786 256.59 128.174 433 99 C 649.728 63.158 860 210 901 433 C 953 714 685 964 405 896 Z M 654.153 844.032 C 739.153 804.032 802.91 745.879 842.91 660.879 C 871.91 599.879 877.153 574.79 877.153 488.79 C 877.153 402.79 850.988 364.996 839.547 339.121 C 801.558 253.203 742.808 183.672 654.152 152.605 C 588.624 129.642 588.012 119.458 511.21 119.484 C 434.408 119.51 407.035 125.931 344.727 155.968 C 270.05 191.968 273.543 201.242 248.543 227.242 C 222.543 252.242 175.494 300.161 157.09 335.758 C 126.943 394.068 117.839 415.122 121.727 501.122 C 125.615 587.122 132.574 598.758 161.574 659.758 C 231.574 808.758 358.726 887.395 521.726 881.395 C 587.726 878.395 601.153 869.032 654.153 844.032 Z"/>
    <path d="M 361.637 810 C 364.637 805 375.111 805.107 376 802.242 C 378 795.797 387.847 802.989 387.847 810 C 387.847 816 376.121 824.484 370.121 824.484 C 365.121 824.484 358.637 816 361.637 810 Z"/>
    <path d="M 615.516 809 C 615.516 804 626.121 798.637 631.121 801.637 C 637.121 804.637 645.605 811.879 645.605 814.879 C 645.605 816.879 634.879 824.484 628.879 824.484 C 623.879 824.484 615.516 815 615.516 809 Z"/>
    <path d="M 251.637 743.363 C 248.637 738.363 254 730 259 730 C 265 730 276.726 736.121 276.726 741.121 C 276.726 747.121 268 757.848 266 757.848 C 263 757.848 254.637 749.363 251.637 743.363 Z"/>
    <path d="M 726.637 740 C 726.637 735 741.726 726.637 747.726 726.637 C 752.726 726.637 751.363 738.363 748.363 743.363 C 745.363 749.363 737 754.484 734 754.484 C 732 754.484 726.637 746 726.637 740 Z"/>
    <path d="M 175.516 627.758 C 175.516 622.758 190.605 617.758 196.605 617.758 C 201.605 617.758 201.363 625 198.363 630 C 195.363 636 184.758 645.605 181.758 645.605 C 179.758 645.605 175.516 633.758 175.516 627.758 Z"/>
    <path d="M 424.574 491.031 L 362.915 362.242 L 476 360 C 589 360 640 403 640 500 C 640 597 589 640 476 640 L 368.52 638.879 L 424.574 491.031 Z M 572 585 C 604 554 613 509 600 459 C 586 408 558 390 493 390 L 440 390 L 487.085 496.637 L 440 610 L 494 610 C 538 610 552 605 572 585 Z"/>
    <path d="M 798.273 631.121 C 795.273 626.121 804 615.516 809 615.516 C 815 615.516 820 623.879 820 628.879 C 820 634.879 818 645.605 816 645.605 C 813 645.605 801.273 637.121 798.273 631.121 Z"/>
    <path d="M 176.637 367.879 C 176.637 362.879 189.484 357.516 194.484 360.516 C 200.484 363.516 204.484 375.242 204.484 378.242 C 204.484 380.242 196 384.484 190 384.484 C 185 384.484 176.637 373.879 176.637 367.879 Z"/>
    <path d="M 800.516 367.758 C 803.516 362.758 815.242 356.637 818.242 356.637 C 820.242 356.637 824.484 367.242 824.484 372.242 C 824.484 378.242 812.758 384.484 806.758 384.484 C 801.758 384.484 797.516 373.758 800.516 367.758 Z"/>
    <path d="M 250.516 260 C 253.516 255 263 250 266 250 C 268 250 274.484 255 274.484 260 C 274.484 266 265 278.969 259 278.969 C 254 278.969 247.516 266 250.516 260 Z"/>
    <path d="M 724.395 259 C 724.395 254 737.242 247.516 742.242 250.516 C 748.242 253.516 754.484 263 754.484 266 C 754.484 268 746 273.363 740 273.363 C 735 273.363 724.395 265 724.395 259 Z"/>
    <path d="M 362.758 190 C 359.758 185 362.879 180 367.879 180 C 373.879 180 387.848 182.758 387.848 187.758 C 387.848 193.758 379.121 206.726 377.121 206.726 C 374.121 206.726 365.758 196 362.758 190 Z"/>
    <path d="M 614.395 188.879 C 619.111 187.219 628.363 180 634.363 180 C 639.363 180 641.363 186.121 638.363 191.121 C 635.363 197.121 628.107 204.77 625.121 204.484 C 622.909 204.272 607.47 191.317 614.395 188.879 Z"/>
  </g>
</svg>